<?xml version="1.0" standalone="no"?>
<!DOCTYPE svg PUBLIC "-//W3C//DTD SVG 20010904//EN"
 "http://www.w3.org/TR/2001/REC-SVG-20010904/DTD/svg10.dtd">
<svg version="1.0" xmlns="http://www.w3.org/2000/svg"
 width="225.000000pt" height="225.000000pt" viewBox="0 0 225.000000 225.000000"
 preserveAspectRatio="xMidYMid meet">

<g transform="translate(0.000000,225.000000) scale(0.100000,-0.100000)"
fill="#000000" stroke="none">
<path d="M915 1880 c-60 -15 -65 -18 -33 -19 30 -1 37 -5 41 -23 l4 -23 2 22
c0 14 12 28 31 38 17 9 30 18 30 20 0 3 -1 4 -2 4 -2 -1 -34 -9 -73 -19z"/>
<path d="M1490 1720 c0 -44 4 -80 8 -80 16 0 157 -150 182 -193 25 -43 25 -43
88 -46 70 -3 72 0 41 62 -62 121 -172 246 -270 306 l-49 31 0 -80z"/>
<path d="M879 1691 c-34 -16 -80 -52 -125 -97 -38 -40 -81 -74 -95 -77 l-24
-4 25 -2 c21 -1 29 -11 52 -74 15 -39 43 -98 62 -129 19 -32 30 -60 25 -63 -5
-4 -9 -11 -9 -17 0 -5 8 -1 18 10 12 16 57 31 166 57 143 34 150 35 170 18 21
-18 21 -18 4 2 -15 19 -15 26 8 125 13 58 28 119 33 137 9 31 7 34 -38 62 -56
36 -111 58 -172 69 -38 7 -53 5 -100 -17z"/>
<path d="M1413 1643 c9 -2 23 -2 30 0 6 3 -1 5 -18 5 -16 0 -22 -2 -12 -5z"/>
<path d="M1338 1633 c6 -2 18 -2 25 0 6 3 1 5 -13 5 -14 0 -19 -2 -12 -5z"/>
<path d="M1278 1623 c7 -3 16 -2 19 1 4 3 -2 6 -13 5 -11 0 -14 -3 -6 -6z"/>
<path d="M1218 1613 c7 -3 16 -2 19 1 4 3 -2 6 -13 5 -11 0 -14 -3 -6 -6z"/>
<path d="M422 1492 c-43 -83 -92 -245 -92 -307 0 -24 5 -34 19 -38 16 -4 21 4
30 57 17 85 48 179 74 218 18 28 21 43 17 93 l-5 60 -43 -83z"/>
<path d="M1692 1355 c0 -16 2 -22 5 -12 2 9 2 23 0 30 -3 6 -5 -1 -5 -18z"/>
<path d="M1681 1274 c0 -11 3 -14 6 -6 3 7 2 16 -1 19 -3 4 -6 -2 -5 -13z"/>
<path d="M1215 1230 c27 -27 51 -50 54 -50 3 0 -17 23 -44 50 -27 28 -51 50
-54 50 -3 0 17 -22 44 -50z"/>
<path d="M1317 1121 l41 -44 -54 -155 c-30 -85 -53 -156 -52 -157 2 -1 52 -32
111 -69 l109 -67 42 25 c23 14 73 58 111 98 58 61 76 74 110 79 l40 6 -36 1
-37 2 -7 66 c-4 37 -16 92 -26 123 -11 31 -23 64 -26 73 -4 12 -13 16 -32 13
-14 -3 -75 -12 -136 -20 l-110 -14 -45 42 -45 42 42 -44z"/>
<path d="M371 1094 c0 -11 3 -14 6 -6 3 7 2 16 -1 19 -3 4 -6 -2 -5 -13z"/>
<path d="M591 909 c-90 -29 -94 -30 -115 -12 -21 18 -21 18 -4 -2 9 -11 21
-49 28 -85 6 -36 27 -98 46 -138 31 -63 34 -75 22 -90 -12 -15 -11 -16 4 -4
15 12 25 10 70 -12 47 -23 187 -62 193 -54 1 2 17 39 34 83 18 44 36 83 40 87
4 5 -18 34 -49 65 -31 32 -80 88 -109 126 -29 37 -56 67 -59 66 -4 0 -49 -14
-101 -30z"/>
<path d="M1808 823 c7 -3 16 -2 19 1 4 3 -2 6 -13 5 -11 0 -14 -3 -6 -6z"/>
<path d="M1138 733 c7 -3 16 -2 19 1 4 3 -2 6 -13 5 -11 0 -14 -3 -6 -6z"/>
<path d="M1088 723 c7 -3 16 -2 19 1 4 3 -2 6 -13 5 -11 0 -14 -3 -6 -6z"/>
<path d="M1028 713 c7 -3 16 -2 19 1 4 3 -2 6 -13 5 -11 0 -14 -3 -6 -6z"/>
<path d="M968 703 c7 -3 16 -2 19 1 4 3 -2 6 -13 5 -11 0 -14 -3 -6 -6z"/>
<path d="M1436 545 c-9 -26 -7 -32 5 -12 6 10 9 21 6 23 -2 3 -7 -2 -11 -11z"/>
<path d="M1408 477 c-14 -29 -25 -36 -90 -55 -117 -35 -241 -54 -273 -42 -15
6 -30 8 -33 6 -2 -3 7 -8 22 -12 14 -3 26 -10 26 -15 0 -28 241 3 329 42 37
16 42 21 31 34 -10 12 -10 21 -1 42 6 14 10 27 8 29 -2 2 -11 -11 -19 -29z"/>
<path d="M885 465 c22 -20 54 -43 70 -51 17 -8 22 -9 11 -2 -10 7 -42 30 -70
51 l-51 38 40 -36z"/>
</g>
</svg>
